<?xml version="1.0" encoding="UTF-8" standalone="no"?>
<svg width="64px" height="64px" viewBox="0 0 64 64" version="1.1" xmlns="http://www.w3.org/2000/svg" xmlns:xlink="http://www.w3.org/1999/xlink" xmlns:sketch="http://www.bohemiancoding.com/sketch/ns">
    <!-- Generator: Sketch 3.2.2 (9983) - http://www.bohemiancoding.com/sketch -->
    <title>noun_99488_cc</title>
    <desc>Created with Sketch.</desc>
    <defs></defs>
    <g id="Page-1" stroke="none" stroke-width="1" fill="none" fill-rule="evenodd" sketch:type="MSPage">
        <g id="noun_99488_cc" sketch:type="MSLayerGroup" fill="white">
            <path d="M62.039,6.69 L56.605,1.253 C55.22,-0.128 52.968,-0.13 51.585,1.254 L14.392,38.445 C13.757,39.081 13.757,40.109 14.392,40.744 C15.027,41.379 16.055,41.379 16.69,40.744 L53.885,3.553 C54.002,3.437 54.192,3.437 54.309,3.553 L59.742,8.987 C59.858,9.105 59.86,9.295 59.743,9.411 L14.068,55.08 L4.62,58.96 L8.393,48.918 C8.709,48.077 8.284,47.141 7.443,46.825 C6.605,46.508 5.666,46.931 5.351,47.775 L0.368,61.034 C0.143,61.631 0.289,62.305 0.74,62.756 L0.905,62.921 C1.216,63.231 1.631,63.397 2.055,63.397 C2.262,63.397 2.472,63.358 2.672,63.274 L15.601,57.962 C15.82,57.873 16.004,57.734 16.157,57.576 C16.166,57.564 16.178,57.562 16.188,57.555 L62.039,11.707 C63.422,10.326 63.423,8.075 62.039,6.69 L62.039,6.69 Z" id="Shape" sketch:type="MSShapeGroup"></path>
        </g>
    </g>
</svg>